<svg data-v-423bf9ae="" xmlns="http://www.w3.org/2000/svg" viewBox="0 0 585.4402601907143 60" class="font"><!----><!----><!----><g data-v-423bf9ae="" id="5cca1fc2-b74b-4a00-b284-014909b0ef1b" fill="#7DE38D" transform="matrix(5.870841333886128,0,0,5.870841333886128,-5.753430946690173,-15.20548042742152)"><path d="M8.47 2.80L8.47 9.38L0.98 2.59L0.98 12.60L2.52 12.60L2.52 6.02L10.01 12.81L10.01 2.80ZM16.49 8.69L12.94 8.69C13.00 8.26 13.21 7.92 13.57 7.66C13.93 7.41 14.35 7.28 14.81 7.28C15.80 7.28 16.36 7.75 16.49 8.69ZM12.91 9.73L18.03 9.73C18.05 9.61 18.06 9.45 18.06 9.25C18.06 8.25 17.77 7.45 17.18 6.88C16.59 6.31 15.80 6.02 14.81 6.02C13.80 6.02 12.98 6.33 12.36 6.96C11.72 7.59 11.41 8.40 11.41 9.38C11.41 10.38 11.71 11.19 12.31 11.81C12.92 12.43 13.75 12.74 14.81 12.74C16.22 12.74 17.25 12.24 17.91 11.24L16.80 10.56C16.45 11.13 15.78 11.41 14.81 11.41C14.30 11.41 13.87 11.27 13.52 10.98C13.18 10.69 12.97 10.27 12.91 9.73ZM18.90 9.38C18.90 10.40 19.24 11.21 19.91 11.82C20.59 12.43 21.43 12.74 22.44 12.74C23.45 12.74 24.29 12.43 24.97 11.82C25.65 11.21 25.98 10.40 25.98 9.38C25.98 8.36 25.65 7.55 24.97 6.94C24.29 6.33 23.45 6.02 22.44 6.02C21.43 6.02 20.59 6.33 19.91 6.94C19.24 7.55 18.90 8.36 18.90 9.38ZM20.38 9.38C20.38 8.75 20.58 8.26 20.96 7.90C21.34 7.53 21.84 7.35 22.44 7.35C23.05 7.35 23.54 7.53 23.93 7.90C24.31 8.26 24.50 8.75 24.50 9.38C24.50 10.01 24.31 10.50 23.93 10.86C23.54 11.23 23.05 11.41 22.44 11.41C21.84 11.41 21.34 11.23 20.96 10.86C20.58 10.50 20.38 10.01 20.38 9.38ZM28.78 7.15L28.78 6.16L27.31 6.16L27.31 12.60L28.78 12.60L28.78 8.96C28.78 8.51 28.95 8.13 29.28 7.82C29.61 7.51 29.99 7.35 30.42 7.35C30.83 7.35 31.14 7.45 31.35 7.64C31.55 7.83 31.65 8.18 31.65 8.68L31.65 12.60L33.12 12.60L33.12 8.54C33.12 7.63 32.93 6.98 32.53 6.59C32.13 6.21 31.57 6.02 30.84 6.02C29.96 6.02 29.27 6.40 28.78 7.15ZM35.95 7.70C35.95 6.63 36.29 5.77 36.97 5.12C37.66 4.48 38.50 4.16 39.49 4.16C40.85 4.16 41.90 4.63 42.64 5.57L42.64 3.74C41.82 3.02 40.77 2.66 39.49 2.66C37.99 2.66 36.76 3.13 35.81 4.06C34.86 4.99 34.38 6.21 34.38 7.70C34.38 9.19 34.86 10.41 35.81 11.34C36.76 12.27 37.99 12.74 39.49 12.74C40.77 12.74 41.82 12.38 42.64 11.66L42.64 9.83C41.90 10.77 40.85 11.24 39.49 11.24C38.50 11.24 37.66 10.92 36.97 10.28C36.29 9.63 35.95 8.77 35.95 7.70ZM43.90 9.38C43.90 10.40 44.24 11.21 44.92 11.82C45.60 12.43 46.44 12.74 47.45 12.74C48.45 12.74 49.30 12.43 49.97 11.82C50.65 11.21 50.99 10.40 50.99 9.38C50.99 8.36 50.65 7.55 49.97 6.94C49.30 6.33 48.45 6.02 47.45 6.02C46.44 6.02 45.60 6.33 44.92 6.94C44.24 7.55 43.90 8.36 43.90 9.38ZM45.39 9.38C45.39 8.75 45.58 8.26 45.96 7.90C46.34 7.53 46.84 7.35 47.45 7.35C48.05 7.35 48.55 7.53 48.93 7.90C49.31 8.26 49.50 8.75 49.50 9.38C49.50 10.01 49.31 10.50 48.93 10.86C48.55 11.23 48.05 11.41 47.45 11.41C46.84 11.41 46.34 11.23 45.96 10.86C45.58 10.50 45.39 10.01 45.39 9.38ZM53.79 8.68C53.79 8.28 53.92 7.96 54.18 7.71C54.44 7.47 54.81 7.35 55.29 7.35C55.67 7.35 55.95 7.45 56.12 7.66C56.29 7.87 56.38 8.21 56.38 8.68L56.38 12.60L57.85 12.60L57.85 8.68C57.85 8.28 57.98 7.96 58.24 7.71C58.50 7.47 58.87 7.35 59.35 7.35C59.73 7.35 60.01 7.45 60.18 7.66C60.35 7.87 60.44 8.21 60.44 8.68L60.44 12.60L61.91 12.60L61.91 8.40C61.91 6.81 61.19 6.02 59.77 6.02C58.82 6.02 58.10 6.41 57.61 7.20C57.27 6.41 56.64 6.02 55.71 6.02C54.90 6.02 54.26 6.36 53.79 7.03L53.79 6.16L52.32 6.16L52.32 12.60L53.79 12.60ZM65.13 8.68C65.13 8.28 65.26 7.96 65.52 7.71C65.78 7.47 66.15 7.35 66.63 7.35C67.01 7.35 67.29 7.45 67.46 7.66C67.63 7.87 67.72 8.21 67.72 8.68L67.72 12.60L69.19 12.60L69.19 8.68C69.19 8.28 69.32 7.96 69.58 7.71C69.84 7.47 70.21 7.35 70.69 7.35C71.07 7.35 71.35 7.45 71.52 7.66C71.69 7.87 71.78 8.21 71.78 8.68L71.78 12.60L73.25 12.60L73.25 8.40C73.25 6.81 72.53 6.02 71.11 6.02C70.16 6.02 69.44 6.41 68.95 7.20C68.61 6.41 67.98 6.02 67.05 6.02C66.24 6.02 65.60 6.36 65.13 7.03L65.13 6.16L63.66 6.16L63.66 12.60L65.13 12.60ZM79.59 8.69L76.03 8.69C76.10 8.26 76.31 7.92 76.67 7.66C77.03 7.41 77.44 7.28 77.91 7.28C78.90 7.28 79.46 7.75 79.59 8.69ZM76.01 9.73L81.13 9.73C81.15 9.61 81.16 9.45 81.16 9.25C81.16 8.25 80.86 7.45 80.28 6.88C79.69 6.31 78.90 6.02 77.91 6.02C76.90 6.02 76.08 6.33 75.45 6.96C74.82 7.59 74.51 8.40 74.51 9.38C74.51 10.38 74.81 11.19 75.41 11.81C76.01 12.43 76.85 12.74 77.91 12.74C79.32 12.74 80.35 12.24 81.00 11.24L79.90 10.56C79.54 11.13 78.88 11.41 77.91 11.41C77.40 11.41 76.97 11.27 76.62 10.98C76.28 10.69 76.07 10.27 76.01 9.73ZM86.04 7.67L86.66 6.47C86.37 6.17 85.97 6.02 85.46 6.02C85.20 6.02 84.95 6.11 84.69 6.29C84.44 6.47 84.21 6.72 84.03 7.03L84.03 6.16L82.49 6.16L82.49 12.60L84.03 12.60L84.03 8.82C84.03 7.84 84.39 7.35 85.11 7.35C85.43 7.35 85.75 7.46 86.04 7.67ZM88.63 9.38C88.63 8.77 88.83 8.29 89.21 7.93C89.60 7.57 90.14 7.39 90.83 7.39C91.27 7.39 91.69 7.51 92.10 7.73C92.50 7.96 92.78 8.24 92.93 8.55L92.93 6.71C92.48 6.25 91.74 6.02 90.69 6.02C89.62 6.02 88.76 6.33 88.12 6.96C87.47 7.58 87.15 8.39 87.15 9.38C87.15 10.37 87.47 11.18 88.12 11.80C88.76 12.43 89.62 12.74 90.69 12.74C91.76 12.74 92.50 12.51 92.93 12.05L92.93 10.21C92.77 10.54 92.51 10.82 92.13 11.04C91.76 11.26 91.33 11.37 90.83 11.37C90.14 11.37 89.60 11.19 89.21 10.83C88.83 10.47 88.63 9.99 88.63 9.38ZM99.13 8.69L95.58 8.69C95.64 8.26 95.86 7.92 96.21 7.66C96.57 7.41 96.99 7.28 97.45 7.28C98.44 7.28 99.00 7.75 99.13 8.69ZM95.55 9.73L100.67 9.73C100.69 9.61 100.70 9.45 100.70 9.25C100.70 8.25 100.41 7.45 99.82 6.88C99.23 6.31 98.44 6.02 97.45 6.02C96.45 6.02 95.63 6.33 95.00 6.96C94.37 7.59 94.05 8.40 94.05 9.38C94.05 10.38 94.35 11.19 94.95 11.81C95.56 12.43 96.39 12.74 97.45 12.74C98.86 12.74 99.89 12.24 100.55 11.24L99.44 10.56C99.09 11.13 98.42 11.41 97.45 11.41C96.94 11.41 96.51 11.27 96.17 10.98C95.82 10.69 95.62 10.27 95.55 9.73Z"></path></g><!----><!----></svg>